<svg width="256" height="256" xmlns="http://www.w3.org/2000/svg">
    <rect x="16" y="224" width="224" height="16" />
    <path fill="#6AD47A" d="M 28,144
            c 0 -64, 104 -64, 104 0
            l -8 0
            c 0 -64, 104 -64, 104 0
            l -28 0
            c 0 -40, -67 -40, -67 0
            l -10 0
            c 0 -40, -67 -40, -67 0
            "
    />
    <path fill="#2B835D" d="M 28,144
            c 0 64, 104 64, 104 0
            l -8 0
            c 0 64, 104 64, 104 0
            l -28 0
            c 0 40, -67 40, -67 0
            l -10 0
            c 0 40, -67 40, -67 0
            "
    />
    <line stroke="#110000" stroke-width="10" x1="96" y1="16" x2="160" y2="80"/>
    <line stroke="#110000" stroke-width="10" x1="160" y1="16" x2="96" y2="80"/>
</svg>